<svg xmlns="http://www.w3.org/2000/svg" viewBox="0 0 640 640"><!--!Font Awesome Free 7.0.1 by @fontawesome - https://fontawesome.com License - https://fontawesome.com/license/free Copyright 2025 Fonticons, Inc.--><path d="M176 252.6C176 175.7 239.7 112 320 112C400.3 112 464 175.7 464 252.6C464 298.2 440.2 354.1 405.1 409.7C376.8 454.5 344.1 494.5 320 521.8C295.9 494.5 263.3 454.6 234.9 409.7C199.8 354.2 176 298.2 176 252.6zM320 64C214 64 128 148.4 128 252.6C128 371.9 248.2 514.9 298.4 569.4C310.2 582.2 329.8 582.2 341.6 569.4C391.8 514.9 512 371.9 512 252.6C512 148.4 426 64 320 64zM288 256C288 238.3 302.3 224 320 224C337.7 224 352 238.3 352 256C352 273.7 337.7 288 320 288C302.3 288 288 273.7 288 256zM400 256C400 211.8 364.2 176 320 176C275.8 176 240 211.8 240 256C240 300.2 275.8 336 320 336C364.2 336 400 300.2 400 256z"/></svg>