<svg xmlns="http://www.w3.org/2000/svg" viewBox="0 0 640 640"><!--!Font Awesome Free 7.0.1 by @fontawesome - https://fontawesome.com License - https://fontawesome.com/license/free Copyright 2025 Fonticons, Inc.--><path d="M376 32C362.7 32 352 42.7 352 56C352 69.3 362.7 80 376 80C477.6 80 560 162.4 560 264C560 277.3 570.7 288 584 288C597.3 288 608 277.3 608 264C608 135.9 504.1 32 376 32zM384 288C401.7 288 416 273.7 416 256C416 238.3 401.7 224 384 224C366.3 224 352 238.3 352 256C352 273.7 366.3 288 384 288zM352 152C352 165.3 362.7 176 376 176C424.6 176 464 215.4 464 264C464 277.3 474.7 288 488 288C501.3 288 512 277.3 512 264C512 188.9 451.1 128 376 128C362.7 128 352 138.7 352 152zM245.6 104.9C233.7 78.7 204 65.8 176.7 74.9C114.4 95.7 60.5 158.6 74.1 235.8C104.7 409.5 230.6 535.4 404.3 566C481.5 579.6 544.4 525.6 565.2 463.4C574.3 436.1 561.3 406.4 535.2 394.5L447.9 354.8C424.5 344.2 396.9 350.8 380.8 370.8L359.6 397.4C310.7 370.1 270.7 328.6 245.2 278.6L269.4 259.3C289.5 243.2 296.1 215.6 285.4 192.2L245.6 104.9zM191.9 120.4C195.9 119.1 200.2 121 201.9 124.8L241.6 212C243.1 215.4 242.2 219.4 239.3 221.7L200.4 252.8C192 259.6 189.1 271.1 193.4 281C225.3 354.9 283.3 414.8 355.8 449.2C365.9 454 377.9 451.2 384.8 442.5L418.3 400.6C420.6 397.7 424.6 396.7 428 398.3L515.3 438C519.1 439.7 521 444 519.7 448C504.6 493.3 461.1 527.1 412.7 518.5C258.9 491.4 148.6 381.1 121.5 227.2C113 178.8 146.8 135.3 192 120.2z"/></svg>